<svg width="247" height="71" viewBox="0 0 247 71" fill="none" xmlns="http://www.w3.org/2000/svg">
<path d="M11.8828 44.1562C11.8828 45.1719 11.5234 46.0312 10.8047 46.7344C9.77344 47.7344 8.29688 48.2344 6.375 48.2344C4.73438 48.2344 3.30469 47.8359 2.08594 47.0391C2.08594 47.3359 2.07031 47.5547 2.03906 47.6953C1.96094 47.9297 1.72656 48.0469 1.33594 48.0469V43.125H2.17969C2.22656 43.7344 2.32812 44.2969 2.48438 44.8125C3.07812 46.6406 4.30469 47.5547 6.16406 47.5547C6.66406 47.5547 7.11719 47.4688 7.52344 47.2969C8.53906 46.8906 9.04688 46.1406 9.04688 45.0469C9.04688 44.6875 8.96094 44.3438 8.78906 44.0156C8.46094 43.3594 7.60938 42.6953 6.23438 42.0234C4.75 41.2891 3.89062 40.8594 3.65625 40.7344C2.1875 39.8438 1.45312 38.7422 1.45312 37.4297C1.45312 36.5547 1.76562 35.7969 2.39062 35.1562C3.34375 34.1875 4.72656 33.7031 6.53906 33.7031C7.96094 33.7031 9.28906 34.0078 10.5234 34.6172C10.5234 34.4766 10.5312 34.3516 10.5469 34.2422C10.6094 33.9453 10.8594 33.7969 11.2969 33.7969V37.9922H10.4531C10.4531 37.1328 10.2344 36.3906 9.79688 35.7656C9.14062 34.8438 8.17188 34.3828 6.89062 34.3828C6.48438 34.3828 6.10156 34.4531 5.74219 34.5938C4.83594 34.9375 4.38281 35.5781 4.38281 36.5156C4.38281 36.875 4.46875 37.2266 4.64062 37.5703C4.96875 38.2109 5.80469 38.8672 7.14844 39.5391C8.61719 40.2578 9.46094 40.6797 9.67969 40.8047C11.1484 41.7109 11.8828 42.8281 11.8828 44.1562ZM27.8203 48H21.9375V47.3672H23.5547L21.7969 42.8672H17.0625L15.3516 47.3672H16.5938C16.6875 47.3672 16.7734 47.375 16.8516 47.3906C17.0703 47.4375 17.1797 47.6406 17.1797 48H12.9141V47.3672H14.4141L19.5703 33.9375H21.0234L26.5078 47.3672H27.2344C27.3438 47.3672 27.4297 47.375 27.4922 47.3906C27.7109 47.4375 27.8203 47.6406 27.8203 48ZM21.5156 42.1641L19.4062 36.6797L17.3203 42.1641H21.5156ZM35.0625 48H28.4297V47.3672H30.3047V34.5703H28.4297V33.9375H35.0625V34.5703H33.1875V47.3672H34.4297C34.7578 47.3984 34.9688 47.6094 35.0625 48ZM46.3594 34.5703V33.9375H51.1172V34.5703H49.2422V47.8828L48 48.1172L38.9062 37.2656V47.3672H40.2656C40.5938 47.3984 40.8047 47.6094 40.8984 48H36.0703V47.3672H37.9453V34.5703H36.0703V33.9375H39.7969L48.2812 44.0859V34.5703H46.3594ZM61.5 48H54.1875V47.3672H56.4141V34.5703H55.7344C55.4219 34.5703 55.1406 34.6094 54.8906 34.6875C54.0625 34.9375 53.4609 35.6719 53.0859 36.8906L52.4766 38.8359H51.7734L51.8906 33.9375H63.8438L63.9375 38.8359H63.2578L62.6484 36.8906C62.5859 36.6875 62.5156 36.4922 62.4375 36.3047C61.9531 35.1484 61.1406 34.5703 60 34.5703H59.2969V47.3672H60.8906C61.1719 47.3984 61.375 47.6094 61.5 48ZM76.3359 44.1562C76.3359 45.1719 75.9766 46.0312 75.2578 46.7344C74.2266 47.7344 72.75 48.2344 70.8281 48.2344C69.1875 48.2344 67.7578 47.8359 66.5391 47.0391C66.5391 47.3359 66.5234 47.5547 66.4922 47.6953C66.4141 47.9297 66.1797 48.0469 65.7891 48.0469V43.125H66.6328C66.6797 43.7344 66.7812 44.2969 66.9375 44.8125C67.5312 46.6406 68.7578 47.5547 70.6172 47.5547C71.1172 47.5547 71.5703 47.4688 71.9766 47.2969C72.9922 46.8906 73.5 46.1406 73.5 45.0469C73.5 44.6875 73.4141 44.3438 73.2422 44.0156C72.9141 43.3594 72.0625 42.6953 70.6875 42.0234C69.2031 41.2891 68.3438 40.8594 68.1094 40.7344C66.6406 39.8438 65.9062 38.7422 65.9062 37.4297C65.9062 36.5547 66.2188 35.7969 66.8438 35.1562C67.7969 34.1875 69.1797 33.7031 70.9922 33.7031C72.4141 33.7031 73.7422 34.0078 74.9766 34.6172C74.9766 34.4766 74.9844 34.3516 75 34.2422C75.0625 33.9453 75.3125 33.7969 75.75 33.7969V37.9922H74.9062C74.9062 37.1328 74.6875 36.3906 74.25 35.7656C73.5938 34.8438 72.625 34.3828 71.3438 34.3828C70.9375 34.3828 70.5547 34.4531 70.1953 34.5938C69.2891 34.9375 68.8359 35.5781 68.8359 36.5156C68.8359 36.875 68.9219 37.2266 69.0938 37.5703C69.4219 38.2109 70.2578 38.8672 71.6016 39.5391C73.0703 40.2578 73.9141 40.6797 74.1328 40.8047C75.6016 41.7109 76.3359 42.8281 76.3359 44.1562ZM94.7344 47.0391C93.2812 47.8203 91.75 48.2188 90.1406 48.2344C87.9062 48.2344 86.1016 47.5078 84.7266 46.0547C83.4297 44.6797 82.7812 42.9766 82.7812 40.9453C82.7812 39.2578 83.2656 37.7578 84.2344 36.4453C85.5938 34.6172 87.5625 33.7031 90.1406 33.7031C91.8438 33.7031 93.3438 34.1016 94.6406 34.8984C94.6406 34.6016 94.6562 34.375 94.6875 34.2188C94.7656 33.9531 95 33.8203 95.3906 33.8203L95.4609 38.3438H94.7109C94.5703 37.8438 94.4141 37.3906 94.2422 36.9844C93.4609 35.25 92.1875 34.3828 90.4219 34.3828C89.875 34.3828 89.3672 34.4688 88.8984 34.6406C86.9922 35.3906 86.0391 37.4766 86.0391 40.8984C86.0547 45.3047 87.4688 47.5234 90.2812 47.5547C90.5469 47.5547 90.8125 47.5391 91.0781 47.5078C92.9219 47.2422 94.1719 45.9297 94.8281 43.5703H95.5312V48.1172C95.3594 48.1172 95.2188 48.1016 95.1094 48.0703C94.8438 47.9922 94.7188 47.6484 94.7344 47.0391ZM104.508 33.7031C106.227 33.7031 107.727 34.1797 109.008 35.1328C110.82 36.4766 111.727 38.4297 111.727 40.9922C111.727 43.1484 110.992 44.9141 109.523 46.2891C108.133 47.5859 106.438 48.2344 104.438 48.2344C102.672 48.2344 101.125 47.7188 99.7969 46.6875C98.0312 45.3125 97.1484 43.3828 97.1484 40.8984C97.1484 38.7422 97.8906 36.9844 99.375 35.625C100.781 34.3438 102.492 33.7031 104.508 33.7031ZM104.508 47.5547C104.883 47.5547 105.234 47.5156 105.562 47.4375C107.5 46.9219 108.469 44.7422 108.469 40.8984C108.469 39.8828 108.398 38.9844 108.258 38.2031C107.805 35.6562 106.531 34.3828 104.438 34.3828C104.297 34.3828 104.148 34.3906 103.992 34.4062C101.602 34.625 100.406 36.8203 100.406 40.9922C100.406 42.3672 100.531 43.5312 100.781 44.4844C101.328 46.5312 102.57 47.5547 104.508 47.5547ZM131.18 33.9375V34.5703H129.305V47.3672H130.547C130.875 47.3984 131.086 47.6094 131.18 48H124.688V47.3672H126.562V36.1875L121.406 48.1875H120.961L115.922 38.1562V47.3672H117.164C117.492 47.3984 117.703 47.6094 117.797 48H113.062V47.3672H114.938V34.5703H113.062V33.9375H117L122.086 44.4844L126.562 33.9375H131.18ZM150.07 33.9375V34.5703H148.195V47.3672H149.438C149.766 47.3984 149.977 47.6094 150.07 48H143.578V47.3672H145.453V36.1875L140.297 48.1875H139.852L134.812 38.1562V47.3672H136.055C136.383 47.3984 136.594 47.6094 136.688 48H131.953V47.3672H133.828V34.5703H131.953V33.9375H135.891L140.977 44.4844L145.453 33.9375H150.07ZM150.703 34.5703V33.9375H157.312V34.5703H155.438V42.6328C155.438 43.4453 155.5 44.1562 155.625 44.7656C156.016 46.625 157.094 47.5547 158.859 47.5547C161.391 47.5391 162.664 45.9062 162.68 42.6562V34.5703H160.805V33.9375H165.398V34.5703H163.523V42.5156C163.523 43.5781 163.406 44.4922 163.172 45.2578C162.531 47.2422 160.93 48.2344 158.367 48.2344C154.539 48.2188 152.609 46.4062 152.578 42.7969V34.5703H150.703ZM176.203 34.5703V33.9375H180.961V34.5703H179.086V47.8828L177.844 48.1172L168.75 37.2656V47.3672H170.109C170.438 47.3984 170.648 47.6094 170.742 48H165.914V47.3672H167.789V34.5703H165.914V33.9375H169.641L178.125 44.0859V34.5703H176.203ZM188.367 48H181.734V47.3672H183.609V34.5703H181.734V33.9375H188.367V34.5703H186.492V47.3672H187.734C188.062 47.3984 188.273 47.6094 188.367 48ZM199.195 48H191.883V47.3672H194.109V34.5703H193.43C193.117 34.5703 192.836 34.6094 192.586 34.6875C191.758 34.9375 191.156 35.6719 190.781 36.8906L190.172 38.8359H189.469L189.586 33.9375H201.539L201.633 38.8359H200.953L200.344 36.8906C200.281 36.6875 200.211 36.4922 200.133 36.3047C199.648 35.1484 198.836 34.5703 197.695 34.5703H196.992V47.3672H198.586C198.867 47.3984 199.07 47.6094 199.195 48ZM212.367 48H205.57V47.3672H207.539V42.1641L203.25 34.5703H202.078V33.9375H208.219V34.5703H206.438L209.977 41.1797L213.258 34.5703H211.383V33.9375H215.531C215.5 34.2656 215.289 34.4766 214.898 34.5703C214.398 34.5859 214 34.8047 213.703 35.2266L210.398 41.9766V47.3672H211.734C212.062 47.3984 212.273 47.6094 212.367 48Z" fill="white"/>
<circle cx="217" cy="15.9997" r="7.99967" fill="#F11B0A"/>
<circle cx="238.332" cy="7.99967" r="7.99967" fill="#CCA856"/>
<circle cx="238.332" cy="27.9997" r="7.99967" fill="#DEDADA"/>
</svg>
